<svg id="Layer_1" data-name="Layer 1" xmlns="http://www.w3.org/2000/svg" viewBox="0 0 96 96"><defs><style>.cls-1{fill:#4a6048;}.cls-2{fill:#f7f3ec;}</style></defs><rect class="cls-1" x="-14.92" y="-10.75" width="125.83" height="117.49"/><path class="cls-2" d="M86.43,44.23a23.56,23.56,0,0,1-3.5-3.83,8.27,8.27,0,0,1-1.55-5.93c.73-5.71-1.1-10.56-5.17-14.73.24-2.33-1.26-3.75-3-4.9a25,25,0,0,0-22.44-2A24.41,24.41,0,0,1,62.13,31a27.09,27.09,0,0,1,.15,6.08,47.12,47.12,0,0,0,8.78-8.21,25.07,25.07,0,0,0,3.56-6.32,13.9,13.9,0,0,1-1.06,4.77,27.14,27.14,0,0,1-8,10.46c-1.32,1.14-2.69,2.24-4,3.36a24.94,24.94,0,0,1-6.58,11,22.38,22.38,0,0,1-3.05,12.09A22.88,22.88,0,0,0,54,70,31.36,31.36,0,0,0,71.57,85c.25.09.51.15.76.22s.26,0,.63.09a22.36,22.36,0,0,1-5.34-10,14.32,14.32,0,0,1,0-7.79c.88-2.8,2.28-3.81,5.18-3.56,1.59.13,3.16.47,4.74.71a7.35,7.35,0,0,0,2.88-.09,3.27,3.27,0,0,0,2.51-4c-.11-.52-.32-1-.4-1.55a1.75,1.75,0,0,1,.62-1.87c1.59-1.2,1.58-1.68-.07-2.9l.7-.37c1.29-.74,1.42-1.51.45-2.64A2,2,0,0,1,84.8,48c.4-.23.84-.41,1.24-.64C87.5,46.55,87.64,45.37,86.43,44.23Z"/><path class="cls-2" d="M46.23,68.63a24.79,24.79,0,0,0,5.4-7.95,20.68,20.68,0,0,0,1.47-9.27,24.74,24.74,0,0,0,5.57-7.66,22,22,0,0,0,1.91-9.46,28.67,28.67,0,0,0-.53-4.81,27.58,27.58,0,0,0-1.4-4.64,24.43,24.43,0,0,0-2.31-4.27,23.74,23.74,0,0,0-3.18-3.68,24.74,24.74,0,0,0-17.83-6.38,25.25,25.25,0,0,0-9.4,2.2c-.38.16-.73.35-1.1.54a10.9,10.9,0,0,0-1.06.58,15.58,15.58,0,0,0-2.06,1.36,6.13,6.13,0,0,0-1.68,2,4.68,4.68,0,0,0-.49,2.35,21.91,21.91,0,0,0-3,4,17.2,17.2,0,0,0-1.85,4.9,17.89,17.89,0,0,0-.27,5.21,12.45,12.45,0,0,1,.15,2.47A7.56,7.56,0,0,1,14,38.45a13.32,13.32,0,0,1-2.82,4c-.59.62-1.18,1.14-1.82,1.81a2.41,2.41,0,0,0-.61,1.35A1.84,1.84,0,0,0,9.32,47a3.79,3.79,0,0,0,1.12.78c.37.19.78.37,1.1.58a1.58,1.58,0,0,1,.76,1.83,3.17,3.17,0,0,1-.62,1,2.13,2.13,0,0,0-.52,1.35A1.67,1.67,0,0,0,12,53.8c.26.18.52.32.77.46a3.54,3.54,0,0,0-.82.82,1,1,0,0,0-.14.93,1.87,1.87,0,0,0,.49.69c.35.37.84.63,1.06.94a1.66,1.66,0,0,1,.21,1.21,12.58,12.58,0,0,1-.36,1.4,4.45,4.45,0,0,0-.12,1.55,3.44,3.44,0,0,0,1.67,2.56,5.59,5.59,0,0,0,3,.64,23.38,23.38,0,0,0,2.94-.4c1-.17,1.92-.33,2.88-.41a5.48,5.48,0,0,1,2.74.34,3.81,3.81,0,0,1,1.79,2,11.19,11.19,0,0,1,.79,2.74A14.93,14.93,0,0,1,28.53,75a22.82,22.82,0,0,1-2,5.43A20.14,20.14,0,0,1,25,82.9c-.28.4-.57.78-.87,1.16l-.47.56a3.39,3.39,0,0,0-.51.83,2.12,2.12,0,0,0,.91,0l.63-.18c.41-.13.8-.3,1.2-.45.78-.32,1.57-.65,2.33-1a31.25,31.25,0,0,0,4.41-2.56A30.72,30.72,0,0,0,40,74.15,27.29,27.29,0,0,0,44.47,65a21.33,21.33,0,0,0,.09-10.14,21.74,21.74,0,0,0-4.56-9,29.94,29.94,0,0,0-3.62-3.59c-1.28-1.11-2.6-2.17-3.9-3.25a36.43,36.43,0,0,1-7.07-7.18A22.83,22.83,0,0,1,23,27.42a14.23,14.23,0,0,1-1.06-4.16A25.88,25.88,0,0,0,25,28.8a33,33,0,0,0,4.8,5.09c3.5,3.09,7.39,5.69,10.6,9A23.72,23.72,0,0,1,47,54.77a23.63,23.63,0,0,1-1.6,13.4l-.52,1.26-.46,1.12.83-.88.94-1Zm1.52-14a24.46,24.46,0,0,0-6.88-12.13c-3.32-3.33-7.25-5.88-10.76-8.9a33.31,33.31,0,0,1-4.82-5,25.2,25.2,0,0,1-3.41-6l0-.08-.24-.58,0,.62a13.94,13.94,0,0,0,1.12,5A22.51,22.51,0,0,0,25.2,32a36.41,36.41,0,0,0,7.09,7.26c1.3,1.08,2.62,2.15,3.89,3.26a29.2,29.2,0,0,1,3.56,3.56,21.15,21.15,0,0,1,4.34,18.88,27,27,0,0,1-4.48,9,30.4,30.4,0,0,1-7.21,7A31.28,31.28,0,0,1,28,83.37c-.75.38-1.53.7-2.31,1-.39.14-.78.32-1.17.44l-.51.14,0,0,.46-.56c.31-.39.61-.78.9-1.18A22.53,22.53,0,0,0,27,80.67a23.86,23.86,0,0,0,2-5.55,15.32,15.32,0,0,0,.31-5.92,11.71,11.71,0,0,0-.83-2.88,4.24,4.24,0,0,0-2-2.26,5.9,5.9,0,0,0-3-.39c-1,.08-2,.24-2.92.41a24.36,24.36,0,0,1-2.87.39A5.12,5.12,0,0,1,15,63.91a2.88,2.88,0,0,1-1.41-2.18,3.86,3.86,0,0,1,.11-1.35,13.93,13.93,0,0,0,.37-1.45,2.15,2.15,0,0,0-.31-1.6,2.69,2.69,0,0,0-.58-.55c-.19-.15-.37-.3-.54-.46a1.36,1.36,0,0,1-.35-.49.47.47,0,0,1,.08-.46,4.7,4.7,0,0,1,1-.92l0,0,.33-.25-.36-.2a10.78,10.78,0,0,1-1.07-.63,1.17,1.17,0,0,1-.56-.81,1.63,1.63,0,0,1,.42-1,3.44,3.44,0,0,0,.73-1.16,2.1,2.1,0,0,0,0-1.46,2.52,2.52,0,0,0-.93-1.1,10.73,10.73,0,0,1-2.09-1.3,1.22,1.22,0,0,1,.1-1.8c.54-.54,1.23-1.14,1.82-1.75a14.29,14.29,0,0,0,3.06-4.23,8.44,8.44,0,0,0,.66-2.59,13.89,13.89,0,0,0-.11-2.61,16.54,16.54,0,0,1,.33-4.92,16.28,16.28,0,0,1,1.81-4.57,20.4,20.4,0,0,1,3-3.9l0,0,.19-.2,0-.27a3.53,3.53,0,0,1,.35-2,5.18,5.18,0,0,1,1.37-1.6,20.77,20.77,0,0,1,4-2.32,24.16,24.16,0,0,1,9-2.13,23.65,23.65,0,0,1,17,6,23.17,23.17,0,0,1,7.1,16.61,21.06,21.06,0,0,1-1.8,9,24.22,24.22,0,0,1-5.43,7.48l-.05.05-.17.18v.23a19.71,19.71,0,0,1-1.35,9.06,23,23,0,0,1-3.67,6A23.5,23.5,0,0,0,47.75,54.61Z"/></svg>