<svg id="Layer_1" data-name="Layer 1" xmlns="http://www.w3.org/2000/svg" viewBox="0 0 841.85 219.89"><defs><style>.cls-1{fill:#4a6048;}.cls-2{fill:#f7f3ec;}</style></defs><rect class="cls-1" x="-13.12" y="-12" width="868.09" height="243.89"/><path class="cls-2" d="M463,161.81a3.27,3.27,0,0,0-2,1.05,3.56,3.56,0,0,0-.83,2.52v8.87a6.66,6.66,0,0,0-1.49-2.55,3.59,3.59,0,0,0-1.87-1.35c-.76.79-1.42,1.42-2,1.89a9.64,9.64,0,0,1-2.46,1.37,10.12,10.12,0,0,1-3.86.68,13.44,13.44,0,0,1-7.36-2,12.66,12.66,0,0,1-4.72-5.36,17.16,17.16,0,0,1-1.62-7.52,14.07,14.07,0,0,1,2.28-8.19,13.73,13.73,0,0,1,5.84-4.88,18.23,18.23,0,0,1,7.43-1.58c.6,0,1.05,0,1.35,0a18.93,18.93,0,0,1,8,2.34l0,7.18a18.37,18.37,0,0,0-2.4-3.94,12.39,12.39,0,0,0-4.08-3.53,10,10,0,0,0-4.88-1.39,8.18,8.18,0,0,0-3.57.82,7.72,7.72,0,0,0-3.71,3.91,15.75,15.75,0,0,0-1.34,6.79,21.43,21.43,0,0,0,.13,2.34,19.46,19.46,0,0,0,1.9,7.1,12.78,12.78,0,0,0,3.8,4.68,8.65,8.65,0,0,0,4.72,1.76,6.93,6.93,0,0,0,2.19-.16,5.2,5.2,0,0,0,1.79-.86,4.37,4.37,0,0,0,1.92-2.57,13.71,13.71,0,0,0,.45-3.67v-.25a3,3,0,0,0-1.14-2.52,5.5,5.5,0,0,0-2.83-1.05Z"/><path class="cls-2" d="M507.9,170.1a5.34,5.34,0,0,0,2.22,2.87,4.91,4.91,0,0,0,2.29.74H499.7a4.57,4.57,0,0,0,2.09-.86,2.16,2.16,0,0,0,.86-1.8,3.9,3.9,0,0,0-.29-1.4l-2.83-7.47h-9.35l-2.59,6.61a5.72,5.72,0,0,0-.41,1.89,2.8,2.8,0,0,0,.84,2.09,3.78,3.78,0,0,0,2.44.94h-8.53a4.41,4.41,0,0,0,2.79-1.35,9.45,9.45,0,0,0,2.22-3.49l10.17-25.48.12.37Zm-13.72-18a25.38,25.38,0,0,0-1.13,2.63l-2.71,7,9.07,0-2.87-7.79a18,18,0,0,0-.93-2.1c-.2-.35-.4-.53-.59-.53S494.46,151.55,494.18,152.09Z"/><path class="cls-2" d="M566.65,169.53a4,4,0,0,0,.8,2.66,3.85,3.85,0,0,0,1.72,1.24,5.33,5.33,0,0,0,1.46.28H557.79a5.15,5.15,0,0,0,1.44-.28,3.91,3.91,0,0,0,1.7-1.24,4,4,0,0,0,.8-2.66V152.79a15.56,15.56,0,0,0-.1-2c-.07-.41-.19-.63-.35-.66s-.37.1-.51.37-.41.82-.77,1.64l-9.39,22.28-12-22.77c-.55-1-1-1.52-1.27-1.52s-.54.63-.54,1.89l-.08,15.71a5.94,5.94,0,0,0,1.19,4,5,5,0,0,0,2.38,1.68,7.44,7.44,0,0,0,1.85.33H531a6.53,6.53,0,0,0,1.78-.35,4.88,4.88,0,0,0,2.3-1.72,6.24,6.24,0,0,0,1.13-4V151.35a6.74,6.74,0,0,0-1-4,5.68,5.68,0,0,0-2.25-2c-.84-.37-1.25-.5-1.25-.39h8.9l10.05,19a12.2,12.2,0,0,0,1.11,1.84c.3.39.57.58.82.58a1,1,0,0,0,.74-.49,7.88,7.88,0,0,0,.82-1.6L562.43,145h8.12a4.78,4.78,0,0,0-1.33.29,4,4,0,0,0-1.73,1.23,4.08,4.08,0,0,0-.84,2.79Z"/><path class="cls-2" d="M616.64,168.05a11.94,11.94,0,0,0,1.75-2.3l-1.81,8H592.74a5.23,5.23,0,0,0,1.44-.26,3.91,3.91,0,0,0,1.7-1.11,3.39,3.39,0,0,0,.8-2.44V148.65c0-1.54-.45-2.53-1.35-3a5.79,5.79,0,0,0-2.59-.68h22.53l1.39,7.27a15.18,15.18,0,0,0-1.8-2.24,17.26,17.26,0,0,0-2.87-2.48,11.5,11.5,0,0,0-3.57-1.7,21.41,21.41,0,0,0-5-.44h-2v13.17h1.81a6,6,0,0,0,6.11-4.51v9.68a6.52,6.52,0,0,0-2-3.3,5.89,5.89,0,0,0-4.08-1.37H601.4v10.46q0,3.81,3.28,3.81h1.89a11.77,11.77,0,0,0,7.06-2.66A20.22,20.22,0,0,0,616.64,168.05Z"/><path class="cls-2" d="M303.1,113.64q0,6.72,3.53,8.79a13.24,13.24,0,0,0,6.66,2.07H280.15a12.85,12.85,0,0,0,6.33-2q3.4-2,3.75-8.34V84.42H254.85v29.22q0,6.72,3.58,8.79a13.55,13.55,0,0,0,6.72,2.07H232a12.85,12.85,0,0,0,6.33-2c2.27-1.3,3.49-4.08,3.64-8.34V57q0-6.72-3.47-8.79a13,13,0,0,0-6.61-2.07h33.25a13.55,13.55,0,0,0-6.72,2.07q-3.58,2.07-3.58,8.79V83.19h35.38V57q0-6.72-3.53-8.79A13.24,13.24,0,0,0,280,46.14h33.25a13.24,13.24,0,0,0-6.66,2.07Q303.1,50.28,303.1,57Z"/><path class="cls-2" d="M382.19,109.05a32.53,32.53,0,0,0,4.76-6.27L382,124.5H317a14.54,14.54,0,0,0,3.92-.73,10.62,10.62,0,0,0,4.65-3q2.18-2.3,2.18-6.66v-58c0-4.18-1.23-6.88-3.69-8.12A15.84,15.84,0,0,0,317,46.14h61.46L382.25,66a42.12,42.12,0,0,0-4.93-6.1,46.47,46.47,0,0,0-7.83-6.77,32.22,32.22,0,0,0-9.74-4.65q-4.59-1.17-13.66-1.17H340.6V83.19h4.93q6.95-.1,11.14-3.69a16.88,16.88,0,0,0,5.54-8.62V97.3a17.77,17.77,0,0,0-5.54-9q-4.2-3.75-11.14-3.75H340.6v28.54q0,10.41,9,10.42h5.15q9.51,0,19.25-7.28A55.42,55.42,0,0,0,382.19,109.05Z"/><path class="cls-2" d="M454,112.75a28.18,28.18,0,0,0,6.21,7.67A21.59,21.59,0,0,0,467,124.5H447.63a79.66,79.66,0,0,1-7.73-11.86l-9.62-17.13a18.44,18.44,0,0,0-5.21-6.38A11.13,11.13,0,0,0,420.54,87c-1.2-.15-3.21-.26-6.05-.34l-.11,30.9c0,2.84.95,4.7,2.85,5.6a12.89,12.89,0,0,0,5.43,1.34H391.43a14.32,14.32,0,0,0,6.6-1.79c2.32-1.19,3.47-3.77,3.47-7.72V55.65c0-3.88-1.23-6.43-3.69-7.67a14.76,14.76,0,0,0-6.38-1.84q7.15,0,14.33-.34,9.4-.22,13.77-.22,12.09,0,19,1.68a17.75,17.75,0,0,1,10.52,6.49,18.7,18.7,0,0,1,3.81,12A21.21,21.21,0,0,1,451,74.46a19.4,19.4,0,0,1-5.31,7.05,22.15,22.15,0,0,1-5.49,3.36,19.05,19.05,0,0,1-4.7,1.46q4.14.9,9.74,11.08ZM436.49,78.32a19.91,19.91,0,0,0,4.09-12.48q0-10.52-5.66-14.89t-16.51-4.36c-1.79,0-3.14,0-4,.11l.11,38.84a54.11,54.11,0,0,0,10-.89Q432.52,83.3,436.49,78.32Z"/><path class="cls-2" d="M530.13,123.5a28.65,28.65,0,0,0,13.16-3.42,46.32,46.32,0,0,0,11.7-8.45,27.3,27.3,0,0,0,6.71-9.74L557,124.5H493.64a14.15,14.15,0,0,0,7-2.18c2.49-1.46,3.74-4.53,3.74-9.24V57q0-6.72-3.52-8.79a13.24,13.24,0,0,0-6.66-2.07h33.25a13.55,13.55,0,0,0-6.72,2.07q-3.59,2.07-3.58,8.79v55.41q0,6.16,2.46,8.62a9.4,9.4,0,0,0,6.94,2.47Z"/><path class="cls-2" d="M631.79,50.89A34.63,34.63,0,0,1,644,65.67a47.68,47.68,0,0,1,3.92,19.2,44.29,44.29,0,0,1-4.76,20.49,36.55,36.55,0,0,1-13.77,14.78q-9,5.48-21.22,5.48-13,0-21.83-6.21a37.14,37.14,0,0,1-13-15.67,43.58,43.58,0,0,1-3.81-19.2,39.79,39.79,0,0,1,5.6-20.83A36.84,36.84,0,0,1,590,49.94a45.28,45.28,0,0,1,21-4.81Q623.5,45.13,631.79,50.89Zm-3.2,14.78A35.43,35.43,0,0,0,619,51.85a18.53,18.53,0,0,0-13.21-4.71A17.89,17.89,0,0,0,594.34,51a24.7,24.7,0,0,0-7.56,11,47.3,47.3,0,0,0-2.69,16.73c0,1.12.08,2.88.23,5.27a60.56,60.56,0,0,0,4.53,19,41.9,41.9,0,0,0,9.69,14.5,21.15,21.15,0,0,0,13,6.16,15.18,15.18,0,0,0,2.13.11,16,16,0,0,0,14.67-8.45q4.92-8.46,4.92-23c0-2.54-.11-5.07-.33-7.61A59.48,59.48,0,0,0,628.59,65.67Z"/><path class="cls-2" d="M723.7,61.14q0-8.85-4.54-11.81a17.81,17.81,0,0,0-8.79-3.19h27.77a17.7,17.7,0,0,0-8.68,3.19q-4.53,3-4.53,11.81v65.27h-.12l-.56-.9-49-62.8c-.9-1.05-1.64-1.57-2.24-1.57s-1.08.45-1.45,1.34a9.75,9.75,0,0,0-.56,3.7v42.54q0,7.27,3.92,11.14a16.53,16.53,0,0,0,9.62,4.64H656.19a16.4,16.4,0,0,0,9.63-4.7q3.91-3.92,3.91-11.19V65.73q0-8.18-2.63-12.48a15,15,0,0,0-5.93-5.94q-3.3-1.62-3.3-1.17h21.38L719,97.41a12.85,12.85,0,0,0,2,2.13,2,2,0,0,0,1.51.45c.52-.08.86-.6,1-1.57a28.76,28.76,0,0,0,.23-4.14Z"/><path class="cls-2" d="M821.32,92a8.88,8.88,0,0,0-5.38,2.85c-1.49,1.61-2.24,3.9-2.24,6.89V126a18.31,18.31,0,0,0-4.08-6.94q-3.09-3.48-5.1-3.7c-2.09,2.17-3.88,3.88-5.37,5.15a25.52,25.52,0,0,1-6.72,3.75,27.47,27.47,0,0,1-10.52,1.85q-11.65,0-20.1-5.37a34.82,34.82,0,0,1-12.87-14.61,47,47,0,0,1-4.42-20.55q0-13.32,6.21-22.33a37.49,37.49,0,0,1,15.95-13.32,49.47,49.47,0,0,1,20.26-4.31c1.65,0,2.88,0,3.7.11a51.8,51.8,0,0,1,21.83,6.38l-.11,19.59a52,52,0,0,0-6.55-10.75,33.85,33.85,0,0,0-11.14-9.62,27.25,27.25,0,0,0-13.32-3.81,22.42,22.42,0,0,0-9.74,2.24q-6.5,3-10.13,10.69t-3.64,18.53q0,3,.33,6.38a53.31,53.31,0,0,0,5.21,19.37,34.8,34.8,0,0,0,10.36,12.76,23.55,23.55,0,0,0,12.87,4.81,19.34,19.34,0,0,0,6-.44,13.76,13.76,0,0,0,4.87-2.36,11.81,11.81,0,0,0,5.26-7,37.45,37.45,0,0,0,1.23-10v-.67a8.17,8.17,0,0,0-3.13-6.89A14.81,14.81,0,0,0,793.1,92Z"/><path class="cls-2" d="M213.09,100.6a58.71,58.71,0,0,1-8.66-9.5,20.49,20.49,0,0,1-3.85-14.71c1.79-14.14-2.73-26.17-12.81-36.5.59-5.78-3.14-9.29-7.58-12.14-16.62-10.63-37.81-12.14-55.61-5.06a59.14,59.14,0,0,1,5.54,3.88c12.56,10,20.42,24.27,22.73,41.24a66.39,66.39,0,0,1,.37,15c7.84-6.14,15.65-12.32,21.78-20.34a62.39,62.39,0,0,0,8.81-15.66,34.47,34.47,0,0,1-2.62,11.82c-4.21,10.48-11.36,18.71-19.8,25.93-3.29,2.83-6.67,5.55-10,8.33-2.75,10-8.18,19.09-16.3,27.27a55.58,55.58,0,0,1-7.56,30,55.75,55.75,0,0,0,5.23,14.17c9.61,18.09,24.33,30.34,43.49,37.37a17.88,17.88,0,0,0,1.9.54c.31.08.64.1,1.55.23a55.44,55.44,0,0,1-13.23-24.91c-1.57-6.44-1.89-12.9.12-19.33,2.18-6.92,5.65-9.42,12.85-8.82,3.94.33,7.83,1.17,11.75,1.76a18,18,0,0,0,7.13-.21,8.09,8.09,0,0,0,6.21-10c-.27-1.29-.77-2.54-1-3.84a4.38,4.38,0,0,1,1.55-4.65c3.94-3,3.91-4.16-.18-7.17.61-.32,1.18-.62,1.74-.94,3.19-1.83,3.52-3.73,1.12-6.52s-1.91-6,1.29-7.91c1-.59,2.07-1,3.08-1.59C215.74,106.35,216.1,103.42,213.09,100.6Z"/><path class="cls-2" d="M113.45,161.09a61.86,61.86,0,0,0,13.38-19.7,51.45,51.45,0,0,0,3.64-23,61.47,61.47,0,0,0,13.81-19A54.66,54.66,0,0,0,149,76,72.47,72.47,0,0,0,147.71,64a67.32,67.32,0,0,0-3.49-11.49,60.16,60.16,0,0,0-5.73-10.59,58.91,58.91,0,0,0-7.87-9.12c-11.82-11-28.19-16.54-44.2-15.82a62.65,62.65,0,0,0-23.31,5.47c-.93.38-1.82.86-2.71,1.32s-1.8.91-2.65,1.44a38,38,0,0,0-5.09,3.37,15.51,15.51,0,0,0-4.18,4.91,11.47,11.47,0,0,0-1.19,5.83,53.86,53.86,0,0,0-7.45,10,42.63,42.63,0,0,0-4.58,12.15,43.83,43.83,0,0,0-.67,12.92A31.51,31.51,0,0,1,35,80.49a18.43,18.43,0,0,1-1.38,5.78,33.34,33.34,0,0,1-7,10c-1.45,1.55-2.92,2.83-4.51,4.5a5.84,5.84,0,0,0-1.51,3.34,4.58,4.58,0,0,0,1.38,3.5,9.29,9.29,0,0,0,2.79,1.93c.9.48,1.94.93,2.73,1.44a3.87,3.87,0,0,1,1.86,4.53,7.36,7.36,0,0,1-1.52,2.45,5.31,5.31,0,0,0-1.3,3.35,4.24,4.24,0,0,0,2,3.06,15.07,15.07,0,0,0,1.91,1.12,9.44,9.44,0,0,0-2,2,2.57,2.57,0,0,0-.35,2.29,4.91,4.91,0,0,0,1.21,1.73,33.83,33.83,0,0,1,2.62,2.33,4,4,0,0,1,.54,3,33.19,33.19,0,0,1-.89,3.45,11,11,0,0,0-.3,3.84,8.46,8.46,0,0,0,4.14,6.36,13.8,13.8,0,0,0,7.38,1.59,61,61,0,0,0,7.28-1c2.39-.41,4.76-.8,7.15-1a13.46,13.46,0,0,1,6.79.85,9.4,9.4,0,0,1,4.44,5,27.77,27.77,0,0,1,1.95,6.8,36.69,36.69,0,0,1-.75,14.18,56.91,56.91,0,0,1-4.94,13.46,52.53,52.53,0,0,1-3.74,6.13c-.69,1-1.42,1.93-2.17,2.87l-1.16,1.39a8.33,8.33,0,0,0-1.27,2.06,5.32,5.32,0,0,0,2.26.07l1.56-.44c1-.32,2-.75,3-1.12,2-.8,3.9-1.62,5.79-2.57a80.18,80.18,0,0,0,10.94-6.37,75.85,75.85,0,0,0,18.06-17.6c4.91-6.83,9.12-14.33,11.2-22.57a52.78,52.78,0,0,0,.22-25.14A53.73,53.73,0,0,0,98,104.61a73,73,0,0,0-9-8.89c-3.18-2.75-6.45-5.39-9.68-8-6.5-5.27-12.71-11-17.52-17.81a56,56,0,0,1-6-10.92A35,35,0,0,1,53.16,48.6a62.63,62.63,0,0,0,7.75,13.74A82.67,82.67,0,0,0,72.8,75c8.67,7.65,18.32,14.11,26.29,22.33s14,18.29,16.23,29.42.32,22.78-4,33.23l-1.28,3.12-1.15,2.78,2.07-2.18,2.32-2.44Zm3.76-34.76c-2.42-11.54-8.84-21.9-17.07-30.07s-18-14.58-26.67-22.06A81.88,81.88,0,0,1,61.53,61.87,62.58,62.58,0,0,1,53.07,47l-.08-.2-.58-1.45,0,1.56a35,35,0,0,0,2.78,12.3,56.42,56.42,0,0,0,6.08,11.06c4.82,6.94,11.09,12.71,17.57,18,3.23,2.68,6.49,5.32,9.64,8.07a73.08,73.08,0,0,1,8.84,8.84,52.76,52.76,0,0,1,11,22.11,51.8,51.8,0,0,1-.3,24.69c-2,8.06-6.23,15.45-11.1,22.18A75,75,0,0,1,79.14,191.4a77.2,77.2,0,0,1-10.8,6.23c-1.86.93-3.79,1.74-5.72,2.51-1,.36-1.94.8-2.91,1.09l-1.25.35.08-.05,1.17-1.4c.76-.95,1.5-1.93,2.21-2.93a52.86,52.86,0,0,0,3.84-6.27,58.59,58.59,0,0,0,5.06-13.76,37.94,37.94,0,0,0,.77-14.67,29,29,0,0,0-2-7.14,10.69,10.69,0,0,0-5.07-5.6,14.52,14.52,0,0,0-7.45-1c-2.45.2-4.87.6-7.26,1a57.34,57.34,0,0,1-7.1,1A12.52,12.52,0,0,1,36,149.37,7.1,7.1,0,0,1,32.5,144a9.36,9.36,0,0,1,.27-3.36,32.92,32.92,0,0,0,.92-3.59,5.38,5.38,0,0,0-.77-4,6.22,6.22,0,0,0-1.45-1.38,16.29,16.29,0,0,1-1.32-1.13,3.57,3.57,0,0,1-.88-1.21,1.22,1.22,0,0,1,.21-1.15A11.27,11.27,0,0,1,32,125.93l.05,0,.82-.62-.9-.51a25.31,25.31,0,0,1-2.63-1.55,2.86,2.86,0,0,1-1.39-2,4,4,0,0,1,1-2.37,9,9,0,0,0,1.8-2.87,5.16,5.16,0,0,0-.09-3.63,6.36,6.36,0,0,0-2.3-2.73c-1.82-1.19-4-1.87-5.19-3.2s-1.05-3.06.26-4.47,3.05-2.84,4.5-4.34A35.53,35.53,0,0,0,35.54,87.1a20.93,20.93,0,0,0,1.64-6.43,34.28,34.28,0,0,0-.27-6.48A41.57,41.57,0,0,1,37.73,62a39.94,39.94,0,0,1,4.48-11.32A50.77,50.77,0,0,1,49.73,41l.09-.1.48-.51-.07-.66a8.84,8.84,0,0,1,.85-4.91,12.94,12.94,0,0,1,3.42-4,51.58,51.58,0,0,1,9.8-5.76,60.12,60.12,0,0,1,22.24-5.26c15.31-.72,31,4.56,42.21,15S146.08,60.66,146.36,76a52.09,52.09,0,0,1-4.47,22.33,60.37,60.37,0,0,1-13.44,18.53l-.13.13-.44.44.05.58a49,49,0,0,1-3.37,22.45,55.88,55.88,0,0,1-9.09,14.82A58.39,58.39,0,0,0,117.21,126.33Z"/></svg>