<svg id="Layer_1" data-name="Layer 1" xmlns="http://www.w3.org/2000/svg" viewBox="0 0 588.09 567.28"><defs><style>.cls-1{fill:#5C7A62;}.cls-2{fill:#F2EFE8;}</style></defs><rect class="cls-1" x="-19.2" y="-8.84" width="626.49" height="584.97"/><path class="cls-2" d="M565.61,257c-9-8.37-17.71-16.92-24.69-27.09-8.68-12.65-13-26.2-11-41.93,5.12-40.3-7.78-74.62-36.52-104.06,1.7-16.48-8.94-26.49-21.6-34.59C424.45,19,364,14.72,313.29,34.89A175.4,175.4,0,0,1,329.09,46c35.8,28.53,58.2,69.18,64.79,117.56a188.73,188.73,0,0,1,1.06,42.92c22.37-17.51,44.62-35.12,62.1-58a178.23,178.23,0,0,0,25.1-44.65,97.33,97.33,0,0,1-7.48,33.71c-12,29.85-32.37,53.31-56.42,73.92-9.39,8-19,15.82-28.51,23.74-7.83,28.41-23.34,54.4-46.46,77.74a158.4,158.4,0,0,1-21.56,85.44,157.94,157.94,0,0,0,14.92,40.39c27.37,51.55,69.36,86.48,124,106.52A53.35,53.35,0,0,0,466,546.8c.88.22,1.81.28,4.4.66-19.44-21.23-31.28-44.75-37.7-71-4.49-18.36-5.4-36.78.34-55.1,6.2-19.74,16.11-26.87,36.63-25.14,11.23.94,22.32,3.34,33.49,5a51.44,51.44,0,0,0,20.34-.61c13.36-3.34,20.61-14.9,17.7-28.43-.78-3.68-2.21-7.23-2.83-10.92-.85-5.08-.2-9.81,4.41-13.27,11.24-8.44,11.16-11.86-.5-20.44,1.72-.93,3.37-1.77,5-2.68,9.09-5.21,10-10.63,3.19-18.59s-5.45-17.14,3.68-22.55c2.83-1.68,5.91-2.92,8.77-4.54C573.16,273.38,574.21,265,565.61,257Z"/><path class="cls-2" d="M281.56,429.43c15.86-16.12,29.48-34.93,38.16-56.15a146.61,146.61,0,0,0,10.36-65.51c16.15-15.42,30.12-33.56,39.38-54.18A156,156,0,0,0,383,186.74a208.57,208.57,0,0,0-3.73-34,192,192,0,0,0-10-32.77,159.73,159.73,0,0,0-38.75-56.18c-33.7-31.36-80.38-47.15-126-45.11a178.76,178.76,0,0,0-66.44,15.61c-2.66,1.08-5.18,2.46-7.74,3.75s-5.11,2.59-7.54,4.11a108.18,108.18,0,0,0-14.51,9.62,44.31,44.31,0,0,0-11.92,14A32.89,32.89,0,0,0,93,82.37a152.29,152.29,0,0,0-21.23,28.42,121.66,121.66,0,0,0-13.07,34.63,125.61,125.61,0,0,0-1.91,36.84c.66,6.3,1.54,11.71,1,17.42a52.59,52.59,0,0,1-3.93,16.46C49.5,226.72,42,236,33.9,244.54c-4.13,4.42-8.33,8.06-12.85,12.83a16.74,16.74,0,0,0-4.32,9.52,13.09,13.09,0,0,0,3.94,10,26.29,26.29,0,0,0,8,5.5c2.57,1.37,5.53,2.65,7.79,4.1,4.55,2.89,7.06,8,5.3,12.92-.84,2.56-2.27,4.45-4.34,7-1.85,2.53-3.84,5.58-3.7,9.55s3.16,6.9,5.68,8.72a45,45,0,0,0,5.45,3.21A27.16,27.16,0,0,0,39,333.67a7.34,7.34,0,0,0-1,6.55,13.79,13.79,0,0,0,3.44,4.92c2.53,2.63,5.95,4.44,7.48,6.64,1.69,2.31,2,5.41,1.52,8.57s-1.62,6.36-2.51,9.83a30,30,0,0,0-.86,10.95,24.08,24.08,0,0,0,11.8,18.13c6.5,3.82,13.94,4.66,21,4.53s14-1.8,20.77-2.87,13.57-2.28,20.36-2.86,13.57-.34,19.37,2.42,10,8.08,12.65,14.16A79.29,79.29,0,0,1,158.63,434c2.14,13.38,1,27.16-2.14,40.43a164.26,164.26,0,0,1-14.08,38.38,150.69,150.69,0,0,1-10.68,17.46c-2,2.78-4,5.51-6.17,8.17l-3.32,4a23.66,23.66,0,0,0-3.63,5.85,15.11,15.11,0,0,0,6.46.22l4.46-1.26c2.92-.92,5.63-2.15,8.46-3.2,5.57-2.27,11.12-4.62,16.49-7.32a227.32,227.32,0,0,0,31.19-18.15,217.32,217.32,0,0,0,51.5-50.17c14-19.48,26-40.86,31.91-64.36a150.5,150.5,0,0,0,.62-71.66,153,153,0,0,0-32.21-64A209.5,209.5,0,0,0,212,243.08c-9.06-7.84-18.37-15.34-27.58-22.94-18.53-15-36.25-31.24-50-50.77a160,160,0,0,1-17.23-31.13,100.11,100.11,0,0,1-7.5-29.47,179.94,179.94,0,0,0,22.09,39.17c9.86,13.28,21.53,25.12,33.91,36,24.73,21.81,52.21,40.22,74.95,63.65,22.72,23.14,40.05,52.15,46.26,83.87s.92,64.94-11.33,94.73l-3.65,8.88L268.65,443l5.91-6.22,6.61-6.95Zm10.74-99.07c-6.91-32.91-25.2-62.44-48.67-85.73-23.46-23.52-51.23-41.55-76-62.88-12.42-10.63-24.1-22.17-34-35.16a177.24,177.24,0,0,1-24.12-42.49l-.23-.59-1.66-4.12.12,4.43a99.18,99.18,0,0,0,7.93,35.07,161.37,161.37,0,0,0,17.31,31.53c13.76,19.78,31.62,36.23,50.11,51.33,9.2,7.64,18.48,15.16,27.47,23a206.68,206.68,0,0,1,25.19,25.19,150.38,150.38,0,0,1,31.49,63,147.9,147.9,0,0,1-.85,70.36c-5.87,23-17.77,44.06-31.65,63.24a213.85,213.85,0,0,1-50.92,49.26A224.74,224.74,0,0,1,153,533.62c-5.31,2.64-10.79,4.94-16.3,7.16-2.77,1-5.52,2.25-8.3,3.1l-3.55,1c.06-.07.16-.09.22-.17l3.32-4q3.28-4.1,6.32-8.35a154.89,154.89,0,0,0,10.94-17.88A167.38,167.38,0,0,0,160,475.28c3.19-13.58,4.44-27.86,2.21-41.83a82.72,82.72,0,0,0-5.84-20.33c-2.82-6.47-7.55-12.85-14.43-16s-14.28-3.3-21.26-2.77-13.86,1.72-20.68,2.88-13.61,2.6-20.25,2.81-13.51-.75-19-4a20.26,20.26,0,0,1-10-15.35,26.57,26.57,0,0,1,.76-9.57c.82-3.22,2.08-6.54,2.61-10.24S54.46,353,52,349.59a18,18,0,0,0-4.12-3.93,46.3,46.3,0,0,1-3.78-3.22A10.29,10.29,0,0,1,41.6,339a3.43,3.43,0,0,1,.59-3.27c1.62-2.36,4.41-4.51,7.09-6.51l.16-.12,2.33-1.75-2.56-1.45a74.3,74.3,0,0,1-7.51-4.42c-2.21-1.64-3.92-3.66-3.94-5.77s1.27-4.58,3-6.75,4.11-5,5.14-8.19a14.74,14.74,0,0,0-.26-10.36,18.14,18.14,0,0,0-6.55-7.76c-5.2-3.4-11.4-5.34-14.79-9.14-3.76-3.71-3-8.71.74-12.72s8.7-8.11,12.83-12.4c8.49-8.66,16.58-18.25,21.62-29.87a59.28,59.28,0,0,0,4.68-18.33c.66-6.3-.27-12.85-.76-18.48a118.53,118.53,0,0,1,2.34-34.77,113.74,113.74,0,0,1,12.77-32.26A145,145,0,0,1,99.92,87.12l.26-.27,1.35-1.45-.19-1.9a25.1,25.1,0,0,1,2.44-14,36.12,36.12,0,0,1,9.73-11.32c8.24-6.52,18.18-11.81,28-16.42a170.82,170.82,0,0,1,63.39-15c43.64-2,88.26,13,120.33,42.76,32.36,29.63,49.41,73.62,50.2,117.34a148.51,148.51,0,0,1-12.73,63.65c-8.9,20-22.55,37.57-38.33,52.84l-.37.37L322.71,305l.13,1.64a139.62,139.62,0,0,1-9.6,64,160.64,160.64,0,0,1-25.9,42.25C295.42,386.26,298.07,357.78,292.3,330.36Z"/></svg>